<svg xmlns="http://www.w3.org/2000/svg" viewBox="0 0 24 24">
  <path fill="#3776AB" d="M12.089 3.635c-.473-.192-.973-.29-1.5-.29H3.635c-.192 0-.29.098-.29.29v2.912c0 .192.098.29.29.29h1.453c.192 0 .29.098.29.29v1.453c0 .192-.098.29-.29.29H3.635c-.192 0-.29.098-.29.29v2.912c0 .192.098.29.29.29h1.453c.192 0 .29.098.29.29v1.453c0 .192-.098.29-.29.29H3.635c-.192 0-.29.098-.29.29v2.912c0 .192.098.29.29.29h6.954c.527 0 1.027-.098 1.5-.29l2.912-1.453c.192-.098.29-.29.29-.484V5.088c0-.192-.098-.29-.29-.29l-2.912-1.163z"/>
  <path fill="#FFD43B" d="M20.365 3.635c-.192 0-.29.098-.29.29v2.912c0 .192.098.29.29.29h1.453c.192 0 .29.098.29.29v1.453c0 .192-.098.29-.29.29h-1.453c-.192 0-.29.098-.29.29v2.912c0 .192.098.29.29.29h1.453c.192 0 .29.098.29.29v1.453c0 .192-.098.29-.29.29h-1.453c-.192 0-.29.098-.29.29v2.912c0 .192.098.29.29.29h-6.954c-.527 0-1.027.098-1.5.29l-2.912 1.453c-.192.098-.29.29-.29.484v4.365c0 .192.098.29.29.29l2.912 1.163c.473.192.973.29 1.5.29h6.954c.192 0 .29-.098.29-.29v-2.912c0-.192-.098-.29-.29-.29h-1.453c-.192 0-.29-.098-.29-.29v-1.453c0-.192.098-.29.29-.29h1.453c.192 0 .29-.098.29-.29v-2.912c0-.192-.098-.29-.29-.29h-1.453c-.192 0-.29-.098-.29-.29v-1.453c0-.192.098-.29.29-.29h1.453c.192 0 .29-.098.29-.29V3.925c0-.192-.098-.29-.29-.29h-1.453z"/>
</svg> 